PathFileType	4	(X/Y/Z)	C:/Users/beibeiliu/ov580/test_trc/User2\sequence.16_training_dense_right.trc
DataRate	CameraRate	NumFrames	NumMarkers	Units	OrigDataRate	OrigDataStartFrame	OrigNumFrames
120	120	10	19	mm	120	257	411
Frame#	Time	ThumbCMC			ThumbMCP			ThumbIP			ThumbTip			IndexMCP			IndexPIP			IndexTip			MiddleMCP			MiddlePIP			MiddleTip			RingMCP			RingPIP			RingTip			PinkyMCP			PinkyPIP			PinkyTip			BackHand1			BackHand2			BackHand3	
		X0	Y0	Z0	X1	Y1	Z1	X2	Y2	Z2	X3	Y3	Z3	X4	Y4	Z4	X5	Y5	Z5	X6	Y6	Z6	X7	Y7	Z7	X8	Y8	Z8	X9	Y9	Z9	X10	Y10	Z10	X11	Y11	Z11	X12	Y12	Z12	X13	Y13	Z13	X14	Y14	Z14	X15	Y15	Z15	X16	Y16	Z16	X17	Y17	Z17	X18	Y18	Z18	
256	2.13333	52.0008	10.2373	70.1732	26.7686	1.32464	57.9977	-1.44722	-4.52204	40.5141	-19.1839	-12.4444	30.1678	45.1446	12.4941	-12.854	35.1284	10.6377	-36.2803	29.3087	5.7922	-64.9765	64.828	-15.9037	-19.1379	60.5801	-53.1119	-11.9698	63.3672	-48.1638	28.81	79.2847	-34.9075	-11.1697	80.6906	-58.3368	8.36097	79.807	-38.8392	38.9716	101.776	-40.2614	-3.45023	89.7116	-54.0478	23.9414	93.126	-34.6132	44.851	103.582	18.5539	23.4582	114.326	29.0945	54.2288	79.8241	30.6527	49.4458	
257	2.14167	50.0897	14.0176	74.0216	27.8054	5.32392	57.9942	-2.75301	0.382792	42.7662	-21.5712	-5.5602	27.542	40.5971	19.5317	-13.0679	35.4555	16.2542	-41.6547	27.5685	13.9801	-65.6606	58.7599	-9.83938	-21.7024	55.5335	-45.3348	-16.4607	62.791	-44.3286	24.5944	78.5554	-28.2627	-13.6896	75.6605	-53.6069	6.04516	76.7975	-35.2939	36.0662	100.43	-34.471	-4.45526	89.2884	-51.9405	19.0736	93.1113	-27.908	43.5387	104.848	19.5455	20.892	116.337	29.7412	54.0408	79.1105	32.2526	50.2522	
258	2.15	51.809	14.8469	71.85	22.4668	11.0983	56.2822	-3.1166	5.82434	38.6936	-24.2312	0.0354327	24.3877	46.5803	24.5791	-13.7344	37.5076	22.6359	-43.3919	32.3554	19.4303	-66.3029	65.0838	-5.9276	-24.1276	54.2225	-42.774	-18.1121	62.0944	-40.6664	21.2756	83.5823	-28.1493	-17.0033	74.4489	-51.0402	3.15119	79.051	-30.0422	34.2779	101.176	-28.317	-5.43309	90.1036	-50.8383	19.1041	90.929	-25.1498	40.4443	106.5	23.6473	22.484	119.709	27.8	53.2224	78.2249	35.8307	48.1523	
259	2.15833	51.1154	18.1564	67.1273	26.9013	12.4391	49.8451	-0.387964	9.89406	32.1992	-21.031	4.50194	20.376	47.7578	27.2571	-19.5532	41.5789	24.7843	-46.0146	36.1228	23.0555	-74.2489	68.3231	-7.29132	-28.9197	56.3475	-39.4997	-21.9944	65.1822	-41.864	16.2446	83.8302	-22.3769	-18.2001	77.5493	-48.4803	-2.58085	76.5428	-31.0705	30.1834	104.033	-32.5307	-8.61811	88.8235	-48.7306	18.8449	91.2007	-26.9053	39.8613	110.858	22.9002	18.4806	121.841	26.931	55.7909	78.7002	35.8394	48.5587	
260	2.16667	51.4188	19.5322	63.9639	29.5229	15.1204	47.885	0.512435	14.6312	26.2775	-20.4874	10.8656	13.0614	59.2329	23.8108	-25.8081	55.6925	21.4104	-50.2338	49.978	17.8968	-80.3658	74.274	-6.59394	-28.0895	63.1114	-42.6206	-24.7506	64.3524	-41.5822	16.308	87.8719	-27.2089	-18.3774	77.1587	-50.7343	0.0693877	79.3619	-30.6027	31.2686	106.806	-36.3621	-7.63879	91.6371	-51.1611	17.2246	94.2077	-28.0311	39.2528	114.94	18.8018	21.4282	121.097	26.3051	54.994	84.0058	35.2792	39.9423	
261	2.175	56.6608	20.3511	58.5982	31.31	18.2168	37.7557	6.4909	16.494	13.4556	-11.5986	12.3901	-1.01238	66.1003	18.0844	-28.5159	61.3851	15.7354	-53.552	64.1504	8.20551	-82.4611	76.7389	-15.7291	-31.4029	68.1644	-49.3828	-20.9457	64.35	-41.4422	20.104	92.2445	-35.8002	-18.0483	82.0152	-56.4227	0.92355	80.2173	-31.3176	31.9066	110.61	-37.9179	-4.35365	92.3229	-55.4826	20.4109	92.9287	-26.0358	39.1612	118.42	14.4857	17.3967	121.131	24.0845	52.4616	87.0389	32.1197	38.2102	
262	2.18333	57.4721	22.0347	51.8487	34.5589	19.0293	37.8455	8.71302	20.3341	13.7225	-8.65522	15.5767	-2.92729	70.6374	10.6443	-33.8008	71.9334	3.34533	-56.747	73.9057	-3.11112	-84.0077	81.8775	-25.3302	-29.0564	66.5932	-56.5076	-14.9792	65.6048	-44.349	21.6387	94.2449	-40.6378	-15.173	77.9421	-59.1234	6.60852	82.3275	-34.7544	34.6783	109.17	-47.39	-1.03216	89.7375	-58.8511	22.666	93.0252	-34.0043	41.7471	123.609	7.41205	19.3145	127.612	21.3219	49.4798	91.9401	30.1148	31.3576	
263	2.19167	60.727	22.3342	49.0709	38.3249	21.7117	32.8584	13.8532	21.8606	5.99953	-5.37571	20.8678	-6.24925	72.6968	4.61081	-33.5692	70.7247	-3.07369	-58.4771	73.3817	-12.7601	-80.6349	80.7426	-30.5603	-25.6118	62.6916	-58.9948	-12.6891	58.6667	-43.3584	25.8218	89.9682	-48.2051	-12.2191	75.609	-65.5409	11.6697	79.1923	-39.6829	36.9554	106.97	-54.5338	2.9514	85.18	-61.3335	28.3826	88.0327	-34.9044	45.3726	122.506	1.62563	18.1564	129.197	16.6218	49.1301	94.0326	25.9434	33.5369	
264	2.2	62.8577	26.7591	53.165	42.6254	24.1423	34.2746	17.1755	26.8001	5.59415	-0.0518817	23.9481	-6.71614	73.5543	-3.28587	-32.5063	69.1156	-11.9473	-54.6511	72.3262	-26.4526	-77.5795	74.9862	-38.1238	-22.0772	54.1333	-62.4166	-4.49737	56.3188	-40.4822	31.9654	85.7018	-55.292	-5.95139	63.5565	-64.7602	17.1716	75.196	-37.08	41.4485	97.2174	-59.98	8.39187	74.853	-62.874	34.2457	84.3151	-32.7652	47.9008	124.273	-8.93773	20.5287	128.766	7.91444	47.4267	97.3857	22.0675	32.37	
265	2.20833	70.2351	25.3381	48.0834	46.7028	29.6774	29.8437	21.7745	35.1525	4.38731	2.0242	36.7362	-10.1909	73.5368	-9.51912	-28.7881	67.9506	-20.2885	-51.9895	65.0501	-35.8066	-76.4672	64.2959	-43.7976	-18.6465	41.7516	-59.2481	1.55141	50.4282	-39.1491	35.8525	70.9807	-59.1278	0.934514	52.1578	-64.4996	28.0123	63.4073	-38.1766	45.1685	83.7153	-70.0886	16.6618	62.9295	-64.1664	39.5197	79.0399	-36.8719	54.7007	118.627	-21.8039	18.8345	131.674	-0.457353	50.854	101.28	17.5399	29.9302	
